<svg xmlns="http://www.w3.org/2000/svg" width="51" height="50" viewBox="0 0 51 50" fill="none">
    <path fill-rule="evenodd" clip-rule="evenodd" d="M15.3597 0.15C18.0264 0.0277727 18.8764 0 25.6667 0C32.4583 0 33.3069 0.0291591 35.9721 0.15C38.6346 0.270841 40.4528 0.694455 42.043 1.3125C43.711 1.94048 45.2219 2.92441 46.4708 4.19584C47.7424 5.44455 48.7264 6.95559 49.3542 8.62361C49.9721 10.2139 50.3944 12.032 50.5167 14.693C50.6389 17.3597 50.6667 18.2097 50.6667 25C50.6667 31.7902 50.6376 32.6402 50.5167 35.307C50.3958 37.968 49.9721 39.7861 49.3542 41.3764C48.7153 43.0195 47.8596 44.4152 46.4708 45.8041C45.2221 47.0757 43.711 48.0598 42.043 48.6875C40.4528 49.3055 38.6346 49.7277 35.9737 49.85C33.3069 49.9723 32.4569 50 25.6667 50C18.8764 50 18.0264 49.9709 15.3597 49.85C12.6986 49.7291 10.8806 49.3055 9.29029 48.6875C7.64722 48.0486 6.2514 47.193 4.86251 45.8041C3.59085 44.5555 2.60685 43.0443 1.97917 41.3764C1.36113 39.7861 0.938899 37.968 0.816672 35.307C0.694444 32.6402 0.666672 31.7916 0.666672 25C0.666672 18.2083 0.695831 17.3597 0.816672 14.6945C0.937513 12.032 1.36113 10.2139 1.97917 8.62361C2.60715 6.9557 3.59108 5.44473 4.86251 4.19584C6.11119 2.92418 7.62224 1.94018 9.29029 1.3125C10.8806 0.694455 12.6986 0.272227 15.3597 0.15ZM35.7694 4.65C33.1333 4.53055 32.3417 4.50416 25.6667 4.50416C18.9917 4.50416 18.2 4.53055 15.5639 4.65C13.1264 4.76111 11.8028 5.16805 10.9222 5.51111C9.75556 5.96389 8.92222 6.50555 8.04722 7.38055C7.17363 8.25555 6.63056 9.08889 6.17779 10.2555C5.83472 11.1361 5.42779 12.4597 5.31667 14.8972C5.19722 17.5333 5.17083 18.325 5.17083 25C5.17083 31.675 5.19722 32.4666 5.31667 35.1027C5.42779 37.5402 5.83472 38.8639 6.17779 39.7445C6.57829 40.8305 7.2171 41.8127 8.04722 42.6195C8.85381 43.4495 9.83624 44.0884 10.9222 44.4889C11.8028 44.832 13.1264 45.2389 15.5639 45.35C18.2 45.4695 18.9903 45.4959 25.6667 45.4959C32.343 45.4959 33.1333 45.4695 35.7694 45.35C38.2069 45.2389 39.5305 44.832 40.4112 44.4889C41.5778 44.0361 42.4112 43.4945 43.2862 42.6195C44.1162 41.813 44.7551 40.8305 45.1555 39.7445C45.4987 38.8639 45.9055 37.5402 46.0167 35.1027C46.1362 32.4666 46.1626 31.675 46.1626 25C46.1626 18.325 46.1362 17.5333 46.0167 14.8972C45.9055 12.4597 45.4987 11.1361 45.1555 10.2555C44.7028 9.08889 44.1612 8.25555 43.2862 7.38055C42.4112 6.50695 41.5778 5.96389 40.4112 5.51111C39.5305 5.16805 38.2069 4.76111 35.7694 4.65ZM22.4746 32.7066C23.4867 33.1259 24.5712 33.3416 25.6667 33.3416C27.8792 33.3416 30.0008 32.4627 31.5651 30.8984C33.1296 29.3341 34.0085 27.2123 34.0085 25C34.0085 22.7877 33.1296 20.6659 31.5651 19.1015C30.0008 17.5372 27.8792 16.6583 25.6667 16.6583C24.5712 16.6583 23.4867 16.8741 22.4746 17.2933C21.4624 17.7125 20.5429 18.3269 19.7683 19.1015C18.9937 19.8761 18.3792 20.7957 17.96 21.8077C17.5408 22.8198 17.3251 23.9045 17.3251 25C17.3251 26.0955 17.5408 27.1802 17.96 28.1923C18.3792 29.2043 18.9937 30.1239 19.7683 30.8984C20.5429 31.673 21.4624 32.2875 22.4746 32.7066ZM16.5804 15.9137C18.9903 13.5038 22.2587 12.15 25.6667 12.15C29.0749 12.15 32.3433 13.5038 34.753 15.9137C37.1628 18.3235 38.5167 21.592 38.5167 25C38.5167 28.408 37.1628 31.6764 34.753 34.0864C32.3433 36.4961 29.0749 37.85 25.6667 37.85C22.2587 37.85 18.9903 36.4961 16.5804 34.0864C14.1706 31.6764 12.8167 28.408 12.8167 25C12.8167 21.592 14.1706 18.3235 16.5804 15.9137ZM41.366 14.0645C41.9355 13.4948 42.2555 12.7222 42.2555 11.9167C42.2555 11.111 41.9355 10.3385 41.366 9.76882C40.7962 9.19918 40.0237 8.87916 39.218 8.87916C38.4126 8.87916 37.6399 9.19918 37.0703 9.76882C36.5005 10.3385 36.1805 11.111 36.1805 11.9167C36.1805 12.7222 36.5005 13.4948 37.0703 14.0645C37.6399 14.6341 38.4126 14.9542 39.218 14.9542C40.0237 14.9542 40.7962 14.6341 41.366 14.0645Z" fill="white"/>
  </svg>