<svg xmlns="http://www.w3.org/2000/svg" width="51" height="50" viewBox="0 0 51 50" fill="none">
    <path d="M46.6299 0H4.02431C1.98681 0 0.333336 1.61458 0.333336 3.60278V46.3924C0.333336 48.3833 1.98681 50 4.02431 50H46.6299C48.6688 50 50.3333 48.3833 50.3333 46.3924V3.60278C50.3333 1.61458 48.6688 0 46.6299 0ZM15.1625 42.6069H7.74306V18.7465H15.1625V42.6069ZM11.4528 15.484C9.0757 15.484 7.15417 13.5576 7.15417 11.1826C7.15417 8.81111 9.0757 6.88472 11.4528 6.88472C13.8243 6.88472 15.7507 8.81111 15.7507 11.1826C15.7507 13.5576 13.8243 15.484 11.4528 15.484ZM42.9375 42.6069H35.5299V31.0042C35.5299 28.2361 35.4757 24.6771 31.675 24.6771C27.8153 24.6771 27.2271 27.6917 27.2271 30.8035V42.6076H19.8139V18.7465H26.9285V22.0049H27.0299C28.0201 20.1299 30.4396 18.1514 34.0479 18.1514C41.5521 18.1514 42.9382 23.0917 42.9382 29.5187L42.9375 42.6069Z" fill="white"/>
  </svg>